<svg xmlns="http://www.w3.org/2000/svg" viewBox="0 0 1600 1000" role="img" aria-labelledby="title desc">
  <title id="title">Godot dungeon generation hero thumbnail</title>
  <desc id="desc">A wide procedural cave-generation hero thumbnail with cellular automata cells, noisy shapes, and glowing dungeon paths.</desc>
  <defs>
    <linearGradient id="bg" x1="0" y1="0" x2="1" y2="1">
      <stop offset="0" stop-color="#020617"/>
      <stop offset="0.52" stop-color="#061527"/>
      <stop offset="1" stop-color="#07343a"/>
    </linearGradient>
    <radialGradient id="glow" cx="62%" cy="43%" r="62%">
      <stop offset="0" stop-color="#7dd3fc" stop-opacity="0.34"/>
      <stop offset="0.45" stop-color="#22c55e" stop-opacity="0.18"/>
      <stop offset="1" stop-color="#020617" stop-opacity="0"/>
    </radialGradient>
    <pattern id="grid" width="56" height="56" patternUnits="userSpaceOnUse">
      <path d="M56 0H0v56" fill="none" stroke="#7dd3fc" stroke-opacity="0.11" stroke-width="1"/>
    </pattern>
    <filter id="blur" x="-30%" y="-30%" width="160%" height="160%">
      <feGaussianBlur stdDeviation="24"/>
    </filter>
  </defs>
  <rect width="1600" height="1000" fill="url(#bg)"/>
  <rect width="1600" height="1000" fill="url(#glow)"/>
  <rect width="1600" height="1000" fill="url(#grid)"/>
  <circle cx="1180" cy="260" r="300" fill="#38bdf8" opacity="0.12" filter="url(#blur)"/>
  <circle cx="520" cy="690" r="360" fill="#22c55e" opacity="0.13" filter="url(#blur)"/>
  <g transform="translate(630 112) scale(1.05)" opacity="0.98">
    <g fill="#0f172a" stroke="#164e63" stroke-width="2">
      <rect x="96" y="0" width="96" height="96" rx="18"/>
      <rect x="192" y="0" width="96" height="96" rx="18"/>
      <rect x="384" y="0" width="96" height="96" rx="18"/>
      <rect x="480" y="96" width="96" height="96" rx="18"/>
      <rect x="0" y="192" width="96" height="96" rx="18"/>
      <rect x="576" y="192" width="96" height="96" rx="18"/>
      <rect x="96" y="384" width="96" height="96" rx="18"/>
      <rect x="480" y="480" width="96" height="96" rx="18"/>
      <rect x="576" y="480" width="96" height="96" rx="18"/>
      <rect x="192" y="576" width="96" height="96" rx="18"/>
    </g>
    <g fill="#7dd3fc" opacity="0.9">
      <rect x="96" y="96" width="96" height="96" rx="20"/>
      <rect x="192" y="96" width="96" height="96" rx="20"/>
      <rect x="288" y="96" width="96" height="96" rx="20"/>
      <rect x="384" y="96" width="96" height="96" rx="20"/>
      <rect x="96" y="192" width="96" height="96" rx="20"/>
      <rect x="288" y="192" width="96" height="96" rx="20"/>
      <rect x="384" y="192" width="96" height="96" rx="20"/>
      <rect x="480" y="192" width="96" height="96" rx="20"/>
      <rect x="96" y="288" width="96" height="96" rx="20"/>
      <rect x="192" y="288" width="96" height="96" rx="20"/>
      <rect x="288" y="288" width="96" height="96" rx="20"/>
      <rect x="384" y="288" width="96" height="96" rx="20"/>
      <rect x="192" y="384" width="96" height="96" rx="20"/>
      <rect x="288" y="384" width="96" height="96" rx="20"/>
      <rect x="384" y="384" width="96" height="96" rx="20"/>
      <rect x="288" y="480" width="96" height="96" rx="20"/>
      <rect x="384" y="480" width="96" height="96" rx="20"/>
    </g>
    <rect x="140" y="140" width="440" height="440" rx="105" fill="#22c55e" opacity="0.22" filter="url(#blur)"/>
    <path d="M154 152h286v84H330v74h148v82H260v90H154V152Z" fill="#020617" opacity="0.86"/>
    <path d="M184 178h212v35H296v72h138v37H232v94h-48V178Z" fill="#a7f3d0" opacity="0.92"/>
  </g>
  <g transform="translate(112 630)">
    <text x="0" y="0" fill="#7dd3fc" font-family="Inter, Arial, sans-serif" font-size="30" font-weight="800" letter-spacing="6">PROCEDURAL GENERATION</text>
    <text x="0" y="82" fill="#edf2ff" font-family="Inter, Arial, sans-serif" font-size="92" font-weight="900" letter-spacing="-4">Dungeon Generation</text>
    <text x="4" y="138" fill="#aeb9cf" font-family="Inter, Arial, sans-serif" font-size="30" font-weight="650">noise · cellular automata · erosion passes</text>
  </g>
</svg>
