<svg xmlns="http://www.w3.org/2000/svg" viewBox="0 0 64 64" role="img" aria-label="Crystonix">
  <rect width="64" height="64" rx="16" fill="#06111f" />
  <path d="M43.5 10.5 54 21.5 48.5 29h-8.7l4.2-6.2-4.6-5H25.3l-9.4 9.6v9.2l9.4 9.6h14.1l4.6-5-4.2-6.2h8.7L54 42.5 43.5 53.5H20.7L10 42.2V21.8l10.7-11.3h22.8Z" fill="#7dd3fc" />
  <path d="M25.3 17.8 15.9 27.4v9.2l9.4 9.6h14.1l4.6-5-4.2-6.2h-9.6l2.6 4.2H28.7L23 33.8v-3.6l5.7-5.4h4.1l-2.6 4.2h9.6l4.2-6.2-4.6-5H25.3Z" fill="#e0f7ff" opacity="0.88" />
  <path d="M15.9 27.4 23 30.2v3.6l-7.1 2.8v-9.2Z" fill="#38bdf8" />
  <path d="M43.5 10.5 39.4 17.8 44 22.8 54 21.5 43.5 10.5Z" fill="#bae6fd" opacity="0.72" />
  <path d="M44 41.2 39.4 46.2l4.1 7.3L54 42.5 44 41.2Z" fill="#38bdf8" opacity="0.7" />
</svg>
